<?xml version="1.0" encoding="UTF-8" standalone="no"?>
<!DOCTYPE svg PUBLIC "-//W3C//DTD SVG 1.1//EN" "http://www.w3.org/Graphics/SVG/1.1/DTD/svg11.dtd">
<svg width="100%" height="100%" viewBox="0 0 50 50" version="1.1" xmlns="http://www.w3.org/2000/svg" xmlns:xlink="http://www.w3.org/1999/xlink" xml:space="preserve" xmlns:serif="http://www.serif.com/" style="fill-rule:evenodd;clip-rule:evenodd;stroke-linecap:round;stroke-linejoin:round;stroke-miterlimit:1.5;">
    <g transform="matrix(1,0,0,1,2.06975,-3.92565)">
        <path d="M43.179,18.119L47.285,23.347L43.179,28.576" style="fill:none;stroke:rgb(0,71,186);stroke-width:0.61px;"/>
    </g>
    <g transform="matrix(1,0,0,1,0,0.944828)">
        <g transform="matrix(1,0,0,2.222,-0.361237,-22.3047)">
            <path d="M39.958,25.85C39.958,22.3 32.853,19.422 24.089,19.422C15.325,19.422 8.22,22.3 8.22,25.85L39.958,25.85Z" style="fill:rgb(255,215,0);stroke:rgb(155,126,0);stroke-width:0.29px;"/>
        </g>
        <g transform="matrix(1,0,0,1,1.56955,-0.385083)">
            <circle cx="22.158" cy="12.125" r="7.296" style="fill:rgb(255,215,0);stroke:rgb(155,126,0);stroke-width:0.5px;"/>
        </g>
        <g transform="matrix(1,0,0,1,-4.38276,1.27789)">
            <path d="M39.862,22.267C38.953,22.109 38.024,22.109 37.115,22.267L37.115,23.494C36.46,23.628 35.828,23.858 35.24,24.176L34.451,23.237C33.654,23.7 32.942,24.297 32.347,25.002L33.136,25.942C32.72,26.466 32.384,27.048 32.138,27.67L30.93,27.457C30.617,28.325 30.455,29.24 30.453,30.162L31.661,30.375C31.68,31.044 31.796,31.706 32.007,32.341L30.945,32.954C31.263,33.82 31.728,34.625 32.319,35.333L33.381,34.72C33.825,35.22 34.34,35.652 34.91,36.002L34.49,37.155C35.29,37.614 36.163,37.932 37.071,38.094L37.491,36.942C38.152,37.039 38.825,37.039 39.486,36.942L39.906,38.094C40.814,37.932 41.687,37.614 42.487,37.155L42.068,36.002C42.637,35.652 43.152,35.22 43.596,34.72L44.659,35.333C45.25,34.625 45.714,33.82 46.032,32.954L44.97,32.341C45.181,31.706 45.298,31.044 45.316,30.375L46.524,30.162C46.522,29.24 46.361,28.325 46.047,27.457L44.839,27.67C44.593,27.048 44.257,26.466 43.842,25.942L44.63,25.002C44.035,24.297 43.323,23.7 42.526,23.237L41.737,24.176C41.149,23.858 40.517,23.628 39.862,23.494L39.862,22.267ZM38.489,26.658C40.435,26.658 42.015,28.238 42.015,30.185C42.015,32.131 40.435,33.711 38.489,33.711C36.542,33.711 34.962,32.131 34.962,30.185C34.962,28.238 36.542,26.658 38.489,26.658Z" style="fill:rgb(128,128,128);stroke:rgb(115,115,115);stroke-width:0.5px;"/>
        </g>
    </g>
</svg>
