<?xml version="1.0" encoding="UTF-8" standalone="no"?>
<!DOCTYPE svg PUBLIC "-//W3C//DTD SVG 1.1//EN" "http://www.w3.org/Graphics/SVG/1.1/DTD/svg11.dtd">
<svg width="100%" height="100%" viewBox="0 0 50 50" version="1.1" xmlns="http://www.w3.org/2000/svg" xmlns:xlink="http://www.w3.org/1999/xlink" xml:space="preserve" xmlns:serif="http://www.serif.com/" style="fill-rule:evenodd;clip-rule:evenodd;stroke-linecap:round;stroke-linejoin:round;stroke-miterlimit:1.5;">
    <g transform="matrix(1,0,0,1,2.9171,-4.4315)">
        <g transform="matrix(1,0,0,1,-11.9739,-0.604233)">
            <path d="M46.585,15.215C46.585,14.839 46.435,14.478 46.17,14.213C45.904,13.947 45.543,13.797 45.167,13.797C39.792,13.797 20.694,13.797 15.319,13.797C14.943,13.797 14.582,13.947 14.316,14.213C14.051,14.478 13.901,14.839 13.901,15.215C13.901,18.938 13.901,28.965 13.901,32.688C13.901,33.064 14.051,33.425 14.316,33.691C14.582,33.956 14.943,34.106 15.319,34.106C20.694,34.106 39.792,34.106 45.167,34.106C45.543,34.106 45.904,33.956 46.17,33.691C46.435,33.425 46.585,33.064 46.585,32.688C46.585,28.965 46.585,18.938 46.585,15.215Z" style="fill:white;stroke:rgb(128,128,128);stroke-width:0.5px;"/>
        </g>
        <g transform="matrix(1,0,0,1,-0.920698,0)">
            <rect x="5.308" y="15.957" width="6.31" height="3.107" style="fill:rgb(115,115,115);"/>
        </g>
        <g transform="matrix(1.12947,0,0,1,-4.23016,0)">
            <rect x="21.761" y="15.957" width="10.913" height="3.107" style="fill:rgb(115,115,115);"/>
        </g>
        <rect x="2.991" y="21.5" width="29.682" height="1.847" style="fill:rgb(115,115,115);"/>
        <g transform="matrix(1,0,0,1,1.38778e-17,3.49968)">
            <rect x="2.991" y="21.5" width="29.682" height="1.847" style="fill:rgb(115,115,115);"/>
        </g>
    </g>
    <g transform="matrix(1,0,0,1,6.93495,2.12573)">
        <g transform="matrix(1,0,0,1,-11.9739,-0.604233)">
            <path d="M46.585,15.215C46.585,14.839 46.435,14.478 46.17,14.213C45.904,13.947 45.543,13.797 45.167,13.797C39.792,13.797 20.694,13.797 15.319,13.797C14.943,13.797 14.582,13.947 14.316,14.213C14.051,14.478 13.901,14.839 13.901,15.215C13.901,18.938 13.901,28.965 13.901,32.688C13.901,33.064 14.051,33.425 14.316,33.691C14.582,33.956 14.943,34.106 15.319,34.106C20.694,34.106 39.792,34.106 45.167,34.106C45.543,34.106 45.904,33.956 46.17,33.691C46.435,33.425 46.585,33.064 46.585,32.688C46.585,28.965 46.585,18.938 46.585,15.215Z" style="fill:white;stroke:rgb(128,128,128);stroke-width:0.5px;"/>
        </g>
        <g transform="matrix(1,0,0,1,-0.920698,0)">
            <rect x="5.308" y="15.957" width="6.31" height="3.107" style="fill:rgb(115,115,115);"/>
        </g>
        <g transform="matrix(1.12947,0,0,1,-4.23016,0)">
            <rect x="21.761" y="15.957" width="10.913" height="3.107" style="fill:rgb(115,115,115);"/>
        </g>
        <rect x="2.991" y="21.5" width="29.682" height="1.847" style="fill:rgb(115,115,115);"/>
        <g transform="matrix(1,0,0,1,1.38778e-17,3.49968)">
            <rect x="2.991" y="21.5" width="29.682" height="1.847" style="fill:rgb(115,115,115);"/>
        </g>
    </g>
    <g transform="matrix(1,0,0,1,2.06975,-3.92565)">
        <path d="M43.179,18.119L47.285,23.347L43.179,28.576" style="fill:none;stroke:rgb(0,71,186);stroke-width:0.61px;"/>
    </g>
    <g transform="matrix(1.20299,0,0,1.20299,0.185463,-3.35763)">
        <g transform="matrix(0.555783,0,0,0.555783,-0.534451,9.11311)">
            <circle cx="11.809" cy="35.908" r="7.973" style="fill:rgb(255,215,0);stroke:rgb(155,126,0);stroke-width:0.75px;"/>
        </g>
        <g transform="matrix(1,0,0,1,-2.49055,-12.4177)">
            <path d="M10.406,38.863C9.856,38.468 9.196,38.255 8.519,38.255C6.735,38.255 5.287,39.704 5.287,41.488C5.287,43.272 6.735,44.72 8.519,44.72C9.196,44.72 9.856,44.508 10.406,44.113C9.856,44.508 9.196,44.72 8.519,44.72C6.735,44.72 5.287,43.272 5.287,41.488C5.287,39.704 6.735,38.255 8.519,38.255C9.196,38.255 9.856,38.468 10.406,38.863Z" style="fill:rgb(255,215,0);stroke:rgb(155,126,0);stroke-width:0.42px;"/>
        </g>
        <g transform="matrix(0.967768,-0.000622356,-0.000622356,0.999988,-1.53908,-11.2245)">
            <path d="M3.891,40.874L7.846,40.95" style="fill:none;stroke:rgb(155,126,0);stroke-width:0.42px;"/>
        </g>
        <g transform="matrix(0.967768,-0.000622356,-0.000622356,0.999988,-1.53908,-12.3864)">
            <path d="M3.891,40.874L7.846,40.95" style="fill:none;stroke:rgb(155,126,0);stroke-width:0.42px;"/>
        </g>
    </g>
</svg>
