<?xml version="1.0" encoding="UTF-8" standalone="no"?>
<!DOCTYPE svg PUBLIC "-//W3C//DTD SVG 1.1//EN" "http://www.w3.org/Graphics/SVG/1.1/DTD/svg11.dtd">
<svg width="100%" height="100%" viewBox="0 0 50 50" version="1.1" xmlns="http://www.w3.org/2000/svg" xmlns:xlink="http://www.w3.org/1999/xlink" xml:space="preserve" xmlns:serif="http://www.serif.com/" style="fill-rule:evenodd;clip-rule:evenodd;stroke-linecap:round;stroke-linejoin:round;stroke-miterlimit:1.5;">
    <g transform="matrix(1,0,0,1,2.06975,-3.92565)">
        <path d="M43.179,18.119L47.285,23.347L43.179,28.576" style="fill:none;stroke:rgb(0,71,186);stroke-width:0.61px;"/>
    </g>
    <g transform="matrix(1,0,0,1,-2.44633,-9.64532)">
        <path d="M44.819,23.034C44.819,22.716 44.692,22.411 44.467,22.186C44.242,21.961 43.937,21.834 43.619,21.834C37.719,21.834 11.839,21.834 5.94,21.834C5.622,21.834 5.317,21.961 5.091,22.186C4.866,22.411 4.74,22.716 4.74,23.034C4.74,26.895 4.74,38.971 4.74,42.833C4.74,43.151 4.866,43.456 5.091,43.681C5.317,43.906 5.622,44.033 5.94,44.033C11.839,44.033 37.719,44.033 43.619,44.033C43.937,44.033 44.242,43.906 44.467,43.681C44.692,43.456 44.819,43.151 44.819,42.833C44.819,38.971 44.819,26.895 44.819,23.034Z" style="fill:rgb(255,215,0);"/>
    </g>
    <g transform="matrix(1,0,0,1,-1.74764,0.600814)">
        <rect x="4.041" y="15.026" width="40.079" height="4.45"/>
    </g>
    <g transform="matrix(1,0,0,1,-2.66697,1.95535)">
        <rect x="6.468" y="25" width="18.532" height="3.408" style="fill:white;"/>
    </g>
    <g transform="matrix(1.00037,0,0,1,-32.7257,0.527137)">
        <path d="M43.865,25.06L42.094,23.288L37.014,23.288C36.696,23.288 36.391,23.414 36.166,23.64C35.941,23.865 35.815,24.17 35.815,24.488C35.815,26.92 35.815,32.403 35.815,34.835C35.815,35.153 35.941,35.459 36.166,35.684C36.391,35.909 36.696,36.035 37.014,36.035C38.536,36.035 41.144,36.035 42.666,36.035C42.984,36.035 43.289,35.909 43.514,35.684C43.739,35.459 43.865,35.153 43.865,34.835C43.865,32.579 43.865,27.695 43.865,25.06Z" style="fill:rgb(239,240,240);stroke:rgb(115,115,115);stroke-width:0.3px;"/>
    </g>
    <g transform="matrix(0.942721,0,0,1,-24.5867,-8.70501)">
        <path d="M37.342,38.891C37.342,38.626 37.23,38.372 37.031,38.184C36.832,37.997 36.562,37.891 36.281,37.891C34.875,37.891 32.41,37.891 31.004,37.891C30.723,37.891 30.453,37.997 30.254,38.184C30.055,38.372 29.944,38.626 29.944,38.891C29.944,40.108 29.944,42.149 29.944,43.365C29.944,43.63 30.055,43.885 30.254,44.072C30.453,44.26 30.723,44.365 31.004,44.365C32.41,44.365 34.875,44.365 36.281,44.365C36.562,44.365 36.832,44.26 37.031,44.072C37.23,43.885 37.342,43.63 37.342,43.365C37.342,42.149 37.342,40.108 37.342,38.891Z" style="fill:rgb(163,133,0);"/>
    </g>
    <g transform="matrix(1,0,0,1,-1.57569,0.24139)">
        <path d="M39.862,22.267C38.953,22.109 38.024,22.109 37.115,22.267L37.115,23.494C36.46,23.628 35.828,23.858 35.24,24.176L34.451,23.237C33.654,23.7 32.942,24.297 32.347,25.002L33.136,25.942C32.72,26.466 32.384,27.048 32.138,27.67L30.93,27.457C30.617,28.325 30.455,29.24 30.453,30.162L31.661,30.375C31.68,31.044 31.796,31.706 32.007,32.341L30.945,32.954C31.263,33.82 31.728,34.625 32.319,35.333L33.381,34.72C33.825,35.22 34.34,35.652 34.91,36.002L34.49,37.155C35.29,37.614 36.163,37.932 37.071,38.094L37.491,36.942C38.152,37.039 38.825,37.039 39.486,36.942L39.906,38.094C40.814,37.932 41.687,37.614 42.487,37.155L42.068,36.002C42.637,35.652 43.152,35.22 43.596,34.72L44.659,35.333C45.25,34.625 45.714,33.82 46.032,32.954L44.97,32.341C45.181,31.706 45.298,31.044 45.316,30.375L46.524,30.162C46.522,29.24 46.361,28.325 46.047,27.457L44.839,27.67C44.593,27.048 44.257,26.466 43.842,25.942L44.63,25.002C44.035,24.297 43.323,23.7 42.526,23.237L41.737,24.176C41.149,23.858 40.517,23.628 39.862,23.494L39.862,22.267ZM38.489,26.658C40.435,26.658 42.015,28.238 42.015,30.185C42.015,32.131 40.435,33.711 38.489,33.711C36.542,33.711 34.962,32.131 34.962,30.185C34.962,28.238 36.542,26.658 38.489,26.658Z" style="fill:rgb(128,128,128);stroke:rgb(115,115,115);stroke-width:0.5px;"/>
    </g>
</svg>
