<?xml version="1.0" encoding="UTF-8" standalone="no"?>
<!DOCTYPE svg PUBLIC "-//W3C//DTD SVG 1.1//EN" "http://www.w3.org/Graphics/SVG/1.1/DTD/svg11.dtd">
<svg width="100%" height="100%" viewBox="0 0 50 50" version="1.1" xmlns="http://www.w3.org/2000/svg" xmlns:xlink="http://www.w3.org/1999/xlink" xml:space="preserve" xmlns:serif="http://www.serif.com/" style="fill-rule:evenodd;clip-rule:evenodd;stroke-linecap:round;stroke-linejoin:round;stroke-miterlimit:1.5;">
    <g transform="matrix(1,0,0,1,2.06975,-3.92565)">
        <path d="M43.179,18.119L47.285,23.347L43.179,28.576" style="fill:none;stroke:rgb(0,71,186);stroke-width:0.61px;"/>
    </g>
    <g>
        <g>
            <g transform="matrix(1,0,0,1,-3.27546,-0.92206)">
                <path d="M44.194,13.698L17.659,13.698L17.659,38.146L43.041,38.146C43.347,38.146 43.64,38.024 43.856,37.808C44.073,37.592 44.194,37.298 44.194,36.993C44.194,32.148 44.194,13.698 44.194,13.698Z" style="fill:rgb(255,215,0);stroke:rgb(163,133,0);stroke-width:1px;"/>
            </g>
            <g transform="matrix(1,0,0,1,0,2.16502)">
                <rect x="37.99" y="18.919" width="2.929" height="1.409" style="fill:rgb(163,133,0);stroke:rgb(163,133,0);stroke-width:1px;"/>
            </g>
            <g transform="matrix(1,0,0,1,-23.6061,-2.42522)">
                <rect x="37.99" y="18.919" width="2.929" height="1.409" style="fill:rgb(163,133,0);stroke:rgb(163,133,0);stroke-width:1px;"/>
            </g>
            <g transform="matrix(0.95175,0,0,1,1.54993,1.49742)">
                <path d="M42.109,10.381C42.109,10.05 41.827,9.781 41.479,9.781C37.62,9.781 17.229,9.781 13.37,9.781C13.022,9.781 12.74,10.05 12.74,10.381C12.74,10.903 12.74,11.655 12.74,12.176C12.74,12.508 13.022,12.776 13.37,12.776C17.229,12.776 37.62,12.776 41.479,12.776C41.827,12.776 42.109,12.508 42.109,12.176C42.109,11.655 42.109,10.903 42.109,10.381Z" style="fill:rgb(255,215,0);stroke:rgb(163,133,0);stroke-width:0.51px;"/>
            </g>
        </g>
        <g transform="matrix(0.670519,0,0,1.36031,-2.5837,-35.7547)">
            <path d="M25.305,39.28L41.138,45.831L9.472,45.831L25.305,39.28Z" style="fill:rgb(157,111,60);stroke:rgb(101,61,11);stroke-width:0.47px;"/>
        </g>
        <g transform="matrix(0.613275,0,0,0.89073,3.17962,5.92693)">
            <g transform="matrix(1,0,0,1,-11.9739,-0.604233)">
                <path d="M46.585,15.389C46.585,14.51 45.55,13.797 44.274,13.797C38.268,13.797 22.218,13.797 16.212,13.797C14.936,13.797 13.901,14.51 13.901,15.389C13.901,19.182 13.901,28.722 13.901,32.515C13.901,33.393 14.936,34.106 16.212,34.106C22.218,34.106 38.268,34.106 44.274,34.106C45.55,34.106 46.585,33.393 46.585,32.515C46.585,28.722 46.585,19.182 46.585,15.389Z" style="fill:white;stroke:rgb(128,128,128);stroke-width:0.65px;"/>
            </g>
            <g transform="matrix(1,0,0,1,-0.920698,0)">
                <rect x="5.308" y="15.957" width="6.31" height="3.107" style="fill:rgb(115,115,115);"/>
            </g>
            <g transform="matrix(1.12947,0,0,1,-4.23016,0)">
                <rect x="21.761" y="15.957" width="10.913" height="3.107" style="fill:rgb(115,115,115);"/>
            </g>
            <rect x="2.991" y="21.5" width="29.682" height="1.847" style="fill:rgb(115,115,115);"/>
            <g transform="matrix(1,0,0,1,1.38778e-17,3.49968)">
                <rect x="2.991" y="21.5" width="29.682" height="1.847" style="fill:rgb(115,115,115);"/>
            </g>
        </g>
        <g transform="matrix(0.708912,0,0,0.708912,1.0966,11.1038)">
            <path d="M5.103,21.845L3.767,21.845L3.767,36.573C3.767,36.99 3.933,37.39 4.228,37.685C4.523,37.98 4.923,38.146 5.34,38.146C10.474,38.146 26.722,38.146 32.026,38.146C32.961,38.146 33.718,37.388 33.718,36.453C33.718,32.282 33.718,21.845 33.718,21.845L32.383,21.845C32.383,21.845 25.641,27.729 21.637,31.224C19.979,32.671 17.507,32.671 15.849,31.224C11.844,27.729 5.103,21.845 5.103,21.845Z" style="fill:rgb(157,111,60);stroke:rgb(101,61,11);stroke-width:0.71px;"/>
        </g>
    </g>
</svg>
